<?xml version="1.0" encoding="UTF-8"?>
<svg id="Layer_1" xmlns="http://www.w3.org/2000/svg" version="1.1" viewBox="0 0 708.7 269">
  <!-- Generator: Adobe Illustrator 30.0.0, SVG Export Plug-In . SVG Version: 2.1.1 Build 123)  -->
  <defs>
    <style>
      .st0 {
        fill: #58b947;
      }

      .st1 {
        fill: #fff;
      }
    </style>
  </defs>
  <g>
    <path class="st0" d="M212.2,151.3c-2.2-10.5-11-17.6-21.8-17.7h-19.7c-1.2,0-1.7-.3-2.1-1.5-3.4-8.9-9.8-14.3-18.9-16.1-3.8-.8-7.8-.6-11.6-.5-2.1,0-4.2.1-6.3,0-10.5-.4-20.7,6.6-24.2,16.6-.4,1.2-.8,1.5-2.2,1.5h-18.7c-2.3,0-4.5.2-6.5.7-10.3,2.5-16.7,11.1-16.7,22.3v40c0,.9,0,1.9.3,2.8.4,1,1.3,1.6,2.7,1.6s1.7-.2,2.2-.8c.8-.9.8-2.2.7-3.4v-40.4c0-10.2,6.7-16.8,16.9-16.8h17.5c.9,0,1.5.1,1.8.4s.4.9.4,1.8c0,12.1,0,24.2,0,34.7s5.7,13,12.9,13,13.1-5.6,13.1-13v-21.2c0-10.7-7.4-19.4-17.9-21.2-.8-.1-.9-.3-.9-.3,0,0,0-.2.3-.8,3.7-7.2,9.4-11.1,17.1-11.4,5-.2,9.9-.2,14.7,0,7.6.4,13.3,4.1,16.8,11,.1.3.5.9.4,1.1,0,0-.2.2-1,.4-10.7,2.3-17.5,10.6-17.7,21.7-.1,6.1-.1,12.8,0,20.4,0,3.8,1.4,7.2,3.9,9.6s5.9,3.6,9.5,3.6c7.2-.1,12.7-5.9,12.7-13.5v-34.5c0-.8.1-1.3.4-1.6.2-.2.7-.3,1.6-.3h17.1c5.4,0,9.9,1.6,12.9,4.6s4.6,7.5,4.6,13v38.9c0,.8,0,1.8.2,2.7.2,1.4,1.2,2.1,2.8,2.2h0c1.5,0,2.5-.8,2.7-2.3.1-.9.1-1.7.1-2.5v-39.5c0-1.8,0-3.6-.4-5.3h.3ZM150.5,179.1c-.3-.8-.4-1.6-.4-2.6v-21.6c.1-7,4.8-12.9,11.6-14.6.6-.1,1.5-.4,1.9-.4s.2,0,.2,0c.2.2.2,1.4.2,2.1v34.4c0,3.5-2.5,6.4-5.8,7-3.2.6-6.5-1.3-7.8-4.4h.1ZM112.1,141.6c0-.8,0-1.3.3-1.5,0-.1.3-.1.5-.1.3,0,.8,0,1.1.2,6.8,1.6,11.9,7.8,12,14.6,0,7.4,0,14.9,0,21.8s-.8,3.6-2.1,4.9c-1.3,1.3-3.2,2.1-5.1,2-3.9,0-6.8-3.1-6.8-7.1v-34.9h0Z"/>
    <path class="st0" d="M209.7,204.2c-3.1,0-5.5-1.9-6-4.8-.2-1.1-.2-2.2-.2-3.3v-38.9c0-4.6-1.3-8.3-3.7-10.7-2.4-2.4-6.1-3.6-10.6-3.6h-15.9v33.1c0,9.4-6.8,16.5-15.8,16.7-4.6,0-8.8-1.5-11.8-4.5-3.1-3-4.8-7.2-4.9-11.8-.1-7.7-.1-14.4,0-20.5.2-11.6,6.8-20.6,17.3-24-3-4.5-7.2-6.8-12.8-7-4.6-.2-9.5-.2-14.4,0-5.5.2-9.7,2.5-12.8,7,10.3,3.2,17.2,12.5,17.2,23.6v21.2c0,9.2-7,16.2-16.3,16.2s-8.3-1.6-11.3-4.6c-3.1-3-4.8-7.1-4.8-11.5v-33.7h-16.5c-8.4,0-13.7,5.2-13.7,13.6v40.3c0,1.5,0,3.9-1.7,5.7-1.1,1.1-2.6,1.7-4.5,1.7-2.7,0-4.7-1.3-5.7-3.5-.6-1.5-.6-3-.6-4v-39.9c0-12.8,7.4-22.5,19.1-25.4,2.2-.5,4.7-.8,7.2-.8h18.1c4.1-11,15.4-18.5,27.1-18.1h6.1c4-.1,8.1-.2,12.3.6,10.1,2,17.1,7.9,21,17.5h19.1c12.4.1,22.4,8.2,24.9,20.2.4,2.1.4,4.2.4,6v39.5c0,.9,0,1.9-.1,3-.4,3-2.8,5-5.9,5h0l.2-.3ZM66.8,197.8h0ZM160.9,143.9c-4.6,1.8-7.6,6.1-7.6,11.1v21.5c0,.7,0,1.1.2,1.4h0c.7,1.7,2.5,2.8,4.3,2.4,1.8-.3,3.2-2,3.2-3.9v-32.5h0ZM115.3,143.9v32.5c0,2.2,1.5,3.9,3.7,3.9s2.1-.4,2.8-1.1c.7-.7,1.1-1.6,1.1-2.7v-21.7c0-4.7-3.2-9-7.6-10.9h0ZM171.6,142.9h0ZM106.5,136.8c.5.2,1.1.5,1.5.9.6.6.9,1.3,1.1,2,.2-.7.6-1.5,1.3-2.1.5-.4,1.2-.7,1.9-.8-.6-.2-1.2-.7-1.6-1.4l-.3-.5c0-.3-.2-.5-.2-.8-.8,1.5-2,2.4-3.7,2.6h0ZM163.8,136.8c.8,0,1.5.3,2,.7.7.6,1.1,1.3,1.3,2.1.2-.6.5-1.3,1.1-1.8.5-.5,1-.8,1.5-.9-1.8-.2-3-1.2-3.9-2.8,0,.4-.1.7-.3,1.1-.4.9-1.1,1.4-1.7,1.7h0ZM116.4,134.6h0Z"/>
  </g>
  <path class="st1" d="M65.3,107.6c4.8,5.2,11.3,8.1,18.4,8.2h.5c6.7,0,13.1-2.6,17.9-7.3,5-4.8,7.7-11.3,7.8-18.1,0-6.9-2.6-13.4-7.4-18.3s-11.3-7.6-18.3-7.6h-.2c-6.9,0-13.7,3-18.6,8.2-4.6,4.9-7,11.1-6.6,17.1-.4,6.4,2,12.9,6.5,17.8h0Z"/>
  <g>
    <path class="st0" d="M138,104.8c4.5,0,8.6-1.7,11.7-4.8,3-3,4.7-7.1,4.6-11.4,0-9-7.3-16.4-16.3-16.4h0c-9.1,0-16.3,7.1-16.4,16.2s1.6,8.7,4.7,11.7c3,3,7.1,4.7,11.6,4.7h.1ZM126.7,88.6c0-3,1.2-5.8,3.3-7.9s5-3.3,8-3.3h0c6.4,0,11.2,4.9,11.3,11.3,0,2.8-1.1,5.6-3.2,7.7-2.2,2.2-5.3,3.5-8.4,3.5-5.8,0-10.9-5.3-10.9-11.3h-.1Z"/>
    <path class="st0" d="M138,108c-5.4,0-10.3-2-13.9-5.6s-5.6-8.6-5.6-14c0-10.8,8.6-19.4,19.5-19.4s19.4,8.8,19.5,19.5c0,5.2-1.9,10-5.6,13.6-3.7,3.7-8.7,5.8-14,5.8h.1ZM129.9,88.6c0,4.2,3.7,8,7.8,8.1,2.2,0,4.5-.9,6.2-2.5,1.5-1.5,2.3-3.4,2.3-5.4,0-4.7-3.4-8.1-8.1-8.1s-4.3.8-5.8,2.3-2.3,3.5-2.4,5.7h0Z"/>
  </g>
  <g>
    <path class="st0" d="M188.3,121.1c4.5,0,8.6-1.7,11.7-4.8,3-3,4.7-7.1,4.6-11.4,0-9-7.3-16.4-16.3-16.4h0c-9.1,0-16.3,7.1-16.4,16.2,0,4.5,1.6,8.7,4.7,11.7,3,3,7.1,4.7,11.6,4.7h0ZM177,104.9c0-3,1.2-5.8,3.3-7.9s5-3.3,8-3.3h0c6.4,0,11.2,4.9,11.3,11.3,0,2.8-1.1,5.6-3.2,7.7-2.2,2.2-5.3,3.5-8.4,3.5-5.8,0-10.9-5.3-10.9-11.3h-.1Z"/>
    <path class="st0" d="M188.3,124.3h0c-5.4,0-10.3-2-13.9-5.6-3.6-3.6-5.6-8.6-5.6-14,0-10.8,8.6-19.4,19.5-19.4s19.4,8.8,19.5,19.5c0,5.2-1.9,10-5.6,13.6-3.7,3.7-8.6,5.8-14,5.8h.1ZM180.2,104.9h0c0,4.2,3.7,8,7.8,8.1,2.3,0,4.5-.9,6.2-2.5,1.5-1.5,2.3-3.4,2.3-5.4,0-4.7-3.4-8.1-8.1-8.1s-4.3.8-5.8,2.3-2.3,3.5-2.4,5.7h0Z"/>
  </g>
  <g>
    <path class="st1" d="M329.5,146.5v31.6h-11.8v-30.5c0-5.2-4.1-9.3-9.3-9.3s-9.6,4.5-9.6,9.8v30h-11.8v-88.5h11.8v42.4c3.4-2.9,7.6-4.6,12.2-4.6,10.3,0,18.5,8.3,18.5,19.1h0Z"/>
    <path class="st1" d="M337.6,153.2c0-14.5,11.3-25.9,26.7-25.9s26.7,11.3,26.7,25.9-11.3,25.9-26.7,25.9-26.7-11.3-26.7-25.9h0ZM379.3,153.2c0-8.3-6.6-14.9-14.9-14.9s-14.9,6.6-14.9,14.9,6.5,14.9,14.9,14.9,14.9-6.6,14.9-14.9Z"/>
    <path class="st1" d="M471,146.5v31.6h-11.8v-30.3c0-5.2-3.9-9.5-9-9.5s-8.8,4.6-8.8,9.5v30.3h-11.8v-30.3c0-5.2-3.9-9.5-9-9.5s-8.8,4.6-8.8,9.5v30.3h-11.8v-49.7h11.8v5.1c3.1-3.7,7.3-6.1,12.3-6.1s10.7,3.1,13.9,7.8c3.2-4.9,8.6-7.8,15-7.8,10.6,0,17.9,8.2,17.9,19.1h0Z"/>
    <path class="st1" d="M479.1,153.2c0-14.5,11.3-25.9,26.7-25.9s26.7,11.3,26.7,25.9-11.3,25.9-26.7,25.9-26.7-11.3-26.7-25.9h0ZM520.7,153.2c0-8.3-6.6-14.9-14.9-14.9s-14.9,6.6-14.9,14.9,6.5,14.9,14.9,14.9,14.9-6.6,14.9-14.9Z"/>
    <path class="st1" d="M575.1,178.1l-21.1-25.5v25.5h-11.7v-88.5h11.7v58.7l20-19.9h14.7l-22.4,22.4,24.4,27.4h-15.6Z"/>
    <path class="st1" d="M649.9,168.4v9.7c-1.1.6-2.5,1-4,1-6.1,0-10.9-3.4-13.4-8.3-4.2,5.1-10.6,8.3-17.8,8.3-14,0-25.2-11.4-25.2-25.9s11.2-25.9,25.2-25.9,11.8,2.4,16,6.2v-5.2h11.8v34.4c0,4.4,2.2,5.6,4.6,5.6h2.8ZM631.1,153.2c0-8.3-6.7-14.9-14.9-14.9s-14.9,6.6-14.9,14.9,6.6,14.9,14.9,14.9,14.9-6.6,14.9-14.9Z"/>
    <path class="st1" d="M269.8,142.8c-1.5-1.5-3-2.7-4.6-3.6s-3.2-1.4-4.9-1.4-4.3.4-6.1,1.2c-1.8.8-3.3,1.9-4.6,3.3s-2.2,3-2.9,4.8-1,3.7-1,5.6.3,3.8,1,5.6c.7,1.8,1.6,3.4,2.9,4.8,1.3,1.4,2.8,2.5,4.6,3.3s3.8,1.2,6.1,1.2,3.7-.4,5.4-1.2,3.1-2,4.2-3.5l8.3,8.9c-1.2,1.2-2.7,2.3-4.3,3.2s-3.3,1.6-4.9,2.2-3.2,1-4.8,1.2-2.8.4-3.9.4c-3.7,0-7.3-.6-10.6-1.9-3.3-1.2-6.2-3-8.6-5.3s-4.3-5-5.8-8.2-2.1-6.8-2.1-10.7.7-7.5,2.1-10.7,3.3-6,5.8-8.2,5.3-4,8.6-5.3,6.8-1.9,10.6-1.9,6.4.6,9.6,1.8c3.2,1.2,6,3.1,8.5,5.8l-8.6,8.6h0Z"/>
  </g>
</svg>