<?xml version="1.0" encoding="UTF-8"?>
<svg id="Layer_1" xmlns="http://www.w3.org/2000/svg" version="1.1" viewBox="0 0 708.7 245.4">
  <!-- Generator: Adobe Illustrator 30.0.0, SVG Export Plug-In . SVG Version: 2.1.1 Build 123)  -->
  <defs>
    <style>
      .st0 {
        fill: #58b947;
      }

      .st1 {
        fill: #fff;
      }
    </style>
  </defs>
  <path class="st0" d="M128.1,146.5c0-12.6,0-25.2,0-37.8,0-26.3,19.5-49.3,45.4-53.8,6.6-1.1,9.9,1.6,9.9,8.3,0,24,0,48,0,72,0,25-15.2,45.7-38.9,53.3-4.1,1.3-8.2,1.8-12.5,2.2-3,.3-3.9-.7-3.9-3.7.1-13.5,0-27.1,0-40.6h0Z"/>
  <path class="st1" d="M121.9,91.2c.3,16.5-14.3,31.7-32.4,31.3-16.8-.4-31.5-15.3-31-33,.5-15.9,14.8-31.1,32.6-30.5,17.5.6,30.9,14.2,30.8,32.1h0Z"/>
  <path class="st0" d="M66,126c13.9.7,27,3.9,38.1,12.4,9.1,6.9,14.2,16.7,17.1,27.5,1.8,6.9,2.9,14,2.8,21.2,0,1.9,0,3.4-2.7,3.3-14.3-.3-28-2.5-40.1-10.7-10.7-7.2-16.2-17.9-19.3-30-1.6-6.2-2.1-12.5-2.5-18.9-.3-4.3,1.3-5.4,5.1-4.8.5,0,1.1,0,1.4,0h0Z"/>
  <g>
    <path class="st1" d="M260.4,143.9h-42.1c.6,8.6,6.7,14.6,15.3,14.6s11.7-3.5,13.9-8.9h12.2c-3,11.2-12.9,19-26.1,19s-27.6-11.3-27.6-26.7,11.8-26.7,27.5-26.7,26.8,11,27.1,26.5v2.2c-.1,0-.1,0-.1,0ZM219.3,135.2h27.9c-2.2-5.9-6.9-9.6-13.6-9.6s-11.9,3.9-14.3,9.6h0Z"/>
    <path class="st1" d="M311.6,135.1v32.6h-12.1v-31.4c0-5.5-4.2-9.8-9.9-9.8s-10,4.2-10,9.8v31.4h-12.2v-51.4h12.2v4.9c3.5-3.7,8.1-5.9,13.2-5.9,10,0,18.8,8.6,18.8,19.8h0Z"/>
    <path class="st1" d="M316.3,156.9l9.9-4.5c1.5,4,5.6,5.8,9.4,5.8s6.4-1.8,6.4-5-2.4-4.4-7.8-6.5c-7.7-2.8-15.3-6.7-15.3-15.8s7.2-15.5,16.8-15.5,13.5,3.5,16.2,7.8l-7.7,6.3c-1.4-2.3-4.4-3.9-7.7-3.9s-5.5,1.7-5.5,4.6,2.4,4.2,7.5,6.3c6.9,2.8,15.2,6.7,15.2,16.5s-7.3,15.8-17.6,15.8-17.2-4.8-19.7-11.8h0Z"/>
    <path class="st1" d="M358.3,100c0-4.1,3.3-7.3,7.3-7.3s7.3,3.2,7.3,7.3-3.3,7.2-7.3,7.2-7.3-3.3-7.3-7.2ZM359.6,116.3h12.1v51.4h-12.1v-51.4h0Z"/>
    <path class="st1" d="M438,142c0,14.9-11.6,26.7-26.1,26.7s-12.2-2.4-16.6-6.4v5.4h-12.2v-91.5h12.2v45.5c4.4-4,10-6.4,16.6-6.4,14.5,0,26.1,11.8,26.1,26.7h0ZM425.8,142c0-8.6-6.8-15.4-15.4-15.4s-15.4,6.8-15.4,15.4,6.8,15.4,15.4,15.4,15.4-6.8,15.4-15.4Z"/>
    <path class="st1" d="M443.8,148.7v-32.4h12.1v30.8c0,6.3,4,10.3,9.5,10.3s9.5-4,9.5-10.3v-30.8h12.1v32.4c0,12.3-8.1,20-21.6,20s-21.6-7.7-21.6-20h0Z"/>
    <path class="st1" d="M494.9,148.7v-32.4h12.1v30.8c0,6.3,4,10.3,9.5,10.3s9.5-4,9.5-10.3v-30.8h12.1v32.4c0,12.3-8.1,20-21.6,20s-21.6-7.7-21.6-20h0Z"/>
    <path class="st1" d="M582.1,167.7l-21.8-26.3v26.3h-12.1v-91.5h12.1v60.6l20.7-20.6h15.2l-23.1,23.1,25.2,28.3h-16.1,0Z"/>
    <path class="st1" d="M595,142c0-15,11.7-26.7,27.6-26.7s27.6,11.7,27.6,26.7-11.7,26.7-27.6,26.7-27.6-11.7-27.6-26.7ZM638,142c0-8.6-6.8-15.4-15.4-15.4s-15.4,6.8-15.4,15.4,6.7,15.4,15.4,15.4,15.4-6.8,15.4-15.4Z"/>
  </g>
</svg>