<svg width="28" height="28" viewBox="0 0 28 28" fill="none" xmlns="http://www.w3.org/2000/svg">
  <circle cx="8" cy="9" r="4" stroke="#10B981" stroke-width="1.5" fill="none"/>
  <path d="M4 15C4 13.5 5.5 12 7 12H9C10.5 12 12 13.5 12 15V23C12 24.1 11.1 25 10 25H6C4.9 25 4 24.1 4 23V15Z" stroke="#10B981" stroke-width="1.5" fill="none" stroke-linejoin="round"/>
  <circle cx="20" cy="9" r="4" stroke="#10B981" stroke-width="1.5" fill="none"/>
  <path d="M16 15C16 13.5 17.5 12 19 12H21C22.5 12 24 13.5 24 15V23C24 24.1 23.1 25 22 25H18C16.9 25 16 24.1 16 23V15Z" stroke="#10B981" stroke-width="1.5" fill="none" stroke-linejoin="round"/>
</svg>