<svg width="28" height="28" viewBox="0 0 28 28" fill="none" xmlns="http://www.w3.org/2000/svg">
  <circle cx="10" cy="8" r="3" stroke="#10B981" stroke-width="1.5" fill="none"/>
  <circle cx="18" cy="8" r="3" stroke="#10B981" stroke-width="1.5" fill="none"/>
  <path d="M7 13C7 11.5 8.5 10 10 10C11.5 10 13 11.5 13 13" stroke="#10B981" stroke-width="1.5" fill="none" stroke-linecap="round"/>
  <path d="M15 13C15 11.5 16.5 10 18 10C19.5 10 21 11.5 21 13" stroke="#10B981" stroke-width="1.5" fill="none" stroke-linecap="round"/>
  <path d="M4 18C4 16 5.5 14.5 7.5 14.5H12.5C14.5 14.5 16 16 16 18V23C16 24.1 15.1 25 14 25H6C4.9 25 4 24.1 4 23V18Z" stroke="#10B981" stroke-width="1.5" fill="none" stroke-linejoin="round"/>
  <path d="M12 18C12 16 13.5 14.5 15.5 14.5H20.5C22.5 14.5 24 16 24 18V23C24 24.1 23.1 25 22 25H14C12.9 25 12 24.1 12 23V18Z" stroke="#10B981" stroke-width="1.5" fill="none" stroke-linejoin="round"/>
</svg>